:FULLY-SPECIFIED
:FORCE-ALL-JOINTS-BE-3DOF
:DEGREES
679
root 5.34485 16.3662 1.16043 16.1683 -25.0328 0.957739
lfemur -32.98 24.2813 -9.92767
ltibia 95.574 -0 0
lfoot 8.81086 -5.28232 0.649306
ltoes 6.22921 -0 0
rfemur -35.2627 -12.9331 24.56
rtibia 52.6635 -0 0
rfoot -17.3651 -5.53723 0.57926
rtoes 2.21178 -0 0
lowerback -0.0396046 -6.2481 -0.505722
upperback -1.99103 -8.37036 0.361246
thorax -1.872 -4.1707 0.735278
lowerneck -9.34032 -4.14573 0.369976
upperneck 2.03977 -5.71209 2.78347
head 2.32264 -2.76933 0.548517
lclavicle 1.53064e-14 -6.75868e-15 0
lhumerus 20.2324 -62.0055 51.2878
lradius 86.3164 -0 0
lwrist 28.7115 0 0
lhand -14.9514 -2.03432 0.0527037
lfingers 7.12502 -0 0
lthumb 11.2109 27.6268 0.0501629
rclavicle 1.53064e-14 -6.75868e-15 0
rhumerus -48.9261 -11.5474 -39.6956
rradius 75.2126 -0 0
rwrist -18.3173 0 0
rhand -28.9116 -46.6814 -0.075943
rfingers 7.12502 -0 0
rthumb -2.26602 -76.6315 -0.0746039
680
root 5.33537 16.4338 1.24425 15.9692 -27.0287 1.03065
lfemur -34.1018 23.5077 -7.41616
ltibia 98.5848 -0 0
lfoot 9.51159 -5.4172 0.717186
ltoes 7.71402 -0 0
rfemur -32.9413 -12.0179 23.5304
rtibia 49.4048 -0 0
rfoot -15.7078 -4.98703 0.673581
rtoes 2.20549 -0 0
lowerback 0.164521 -6.15698 -0.558309
upperback -1.97651 -8.25694 0.180234
thorax -1.99 -4.11272 0.597652
lowerneck -9.13045 -4.13648 0.357849
upperneck 2.16661 -5.70423 2.8913
head 2.33068 -2.76393 0.589144
lclavicle 1.53064e-14 -6.75868e-15 0
lhumerus 23.1678 -59.6178 46.599
lradius 86.1624 -0 0
lwrist 28.85 0 0
lhand -15.5461 -2.40432 0.0575285
lfingers 7.12502 -0 0
lthumb 10.6373 27.2856 0.0549319
rclavicle 1.53064e-14 -6.75868e-15 0
rhumerus -48.2916 -11.2677 -37.5824
rradius 77.1625 -0 0
rwrist -17.858 0 0
rhand -29.2504 -46.3037 -0.0869438
rfingers 7.12502 -0 0
rthumb -2.59317 -76.2474 -0.0854151
681
root 5.3264 16.5031 1.31632 15.7577 -29.053 1.11403
lfemur -35.2752 22.7348 -4.81751
ltibia 101.609 -0 0
lfoot 10.1359 -5.51802 0.770681
ltoes 9.31252 -0 0
rfemur -30.583 -11.0618 22.5053
rtibia 46.012 -0 0
rfoot -13.9394 -4.40103 0.754123
rtoes 2.20081 -0 0
lowerback 0.378154 -6.05521 -0.626694
upperback -1.96114 -8.13009 -0.0121833
thorax -2.11235 -4.0481 0.457882
lowerneck -8.91043 -4.13454 0.342717
upperneck 2.30327 -5.70721 3.01635
head 2.34134 -2.76325 0.635363
lclavicle 1.53064e-14 -6.75868e-15 0
lhumerus 25.598 -57.0511 42.3291
lradius 85.9674 -0 0
lwrist 28.9864 0 0
lhand -16.1473 -2.77954 0.059901
lfingers 7.12502 -0 0
lthumb 10.0574 26.9388 0.0574611
rclavicle 1.53064e-14 -6.75868e-15 0
rhumerus -47.5914 -10.9896 -35.4502
rradius 79.1784 -0 0
rwrist -17.3693 0 0
rhand -29.6084 -45.9096 -0.0959221
rfingers 7.12502 -0 0
rthumb -2.9388 -75.8466 -0.0942403
682
root 5.31799 16.5758 1.38125 15.535 -31.084 1.2082
lfemur -36.4896 21.9766 -2.16025
ltibia 104.614 -0 0
lfoot 10.6797 -5.58514 0.808978
ltoes 11.0049 -0 0
rfemur -28.2142 -10.0735 21.4985
rtibia 42.5239 -0 0
rfoot -12.0815 -3.78648 0.817006
rtoes 2.19772 -0 0
lowerback 0.598748 -5.94406 -0.709601
upperback -1.94522 -7.9915 -0.213666
thorax -2.23771 -3.97772 0.317435
lowerneck -8.68283 -4.13968 0.324787
upperneck 2.448 -5.72077 3.15679
head 2.35443 -2.76716 0.686528
lclavicle 1.53064e-14 -6.75868e-15 0
lhumerus 27.5637 -54.3528 38.4535
lradius 85.7347 -0 0
lwrist 29.1195 0 0
lhand -16.7486 -3.15597 0.0596706
lfingers 7.12502 -0 0
lthumb 9.47731 26.5901 0.0576023
rclavicle 1.53064e-14 -6.75868e-15 0
rhumerus -46.834 -10.7199 -33.3208
rradius 81.2377 -0 0
rwrist -16.857 0 0
rhand -29.9812 -45.5038 -0.102473
rfingers 7.12502 -0 0
rthumb -3.29879 -75.4338 -0.100681
683
root 5.31023 16.6539 1.44363 15.3024 -33.1002 1.31314
lfemur -37.7325 21.2449 0.527006
ltibia 107.57 -0 0
lfoot 11.1391 -5.61887 0.831397
ltoes 12.7713 -0 0
rfemur -25.8603 -9.06347 20.5216
rtibia 38.9794 -0 0
rfoot -10.1558 -3.15091 0.859121
rtoes 2.19624 -0 0
lowerback 0.823762 -5.8248 -0.805768
upperback -1.92902 -7.84286 -0.421879
thorax -2.36471 -3.90247 0.177782
lowerneck -8.4502 -4.15169 0.304264
upperneck 2.59909 -5.74461 3.31076
head 2.36975 -2.77552 0.741993
lclavicle 1.53064e-14 -6.75868e-15 0
lhumerus 29.1165 -51.5702 34.9368
lradius 85.4675 -0 0
lwrist 29.2479 0 0
lhand -17.3437 -3.52959 0.0568539
lfingers 7.12502 -0 0
lthumb 8.90316 26.2433 0.0553567
rclavicle 1.53064e-14 -6.75868e-15 0
rhumerus -46.0287 -10.4644 -31.2163
rradius 83.3176 -0 0
rwrist -16.3271 0 0
rhand -30.3646 -45.0908 -0.106298
rfingers 7.12502 -0 0
rthumb -3.66904 -75.0136 -0.104444
684
root 5.30315 16.7391 1.50807 15.0616 -35.08 1.4285
lfemur -38.9898 20.5494 3.21545
ltibia 110.445 -0 0
lfoot 11.5101 -5.61944 0.837399
ltoes 14.592 -0 0
rfemur -23.5454 -8.04397 19.5844
rtibia 35.4171 -0 0
rfoot -8.18389 -2.50206 0.878239
rtoes 2.19636 -0 0
lowerback 1.05066 -5.69871 -0.913951
upperback -1.9128 -7.6859 -0.634491
thorax -2.49198 -3.82322 0.040402
lowerneck -8.2151 -4.17034 0.281354
upperneck 2.75478 -5.77845 3.47643
head 2.38712 -2.78821 0.801114
lclavicle 1.53064e-14 -6.75868e-15 0
lhumerus 30.3107 -48.7495 31.7421
lradius 85.1692 -0 0
lwrist 29.3703 0 0
lhand -17.9263 -3.89638 0.0516327
lfingers 7.12502 -0 0
lthumb 8.3411 25.9021 0.0508737
rclavicle 1.53064e-14 -6.75868e-15 0
rhumerus -45.1855 -10.2273 -29.1587
rradius 85.3957 -0 0
rwrist -15.7855 0 0
rhand -30.7544 -44.675 -0.107215
rfingers 7.12502 -0 0
rthumb -4.04543 -74.5906 -0.105351
